<?xml version="1.0" standalone="no"?>
<!DOCTYPE svg PUBLIC "-//W3C//DTD SVG 20010904//EN"
 "http://www.w3.org/TR/2001/REC-SVG-20010904/DTD/svg10.dtd">
<svg version="1.0" xmlns="http://www.w3.org/2000/svg"
 width="1024.000000pt" height="1024.000000pt" viewBox="0 0 1024.000000 1024.000000"
 preserveAspectRatio="xMidYMid meet">
<metadata>
Created by potrace 1.11, written by Peter Selinger 2001-2013
</metadata>
<g transform="translate(0.000000,1024.000000) scale(0.100000,-0.100000)"
fill="#000000" stroke="none">
<path d="M2175 9455 c-103 -24 -220 -109 -262 -189 -47 -91 -52 -127 -50 -359
2 -217 3 -223 29 -279 l27 -58 2998 -2 2998 -3 40 -26 c53 -35 81 -66 99 -111
l16 -37 39 14 c81 28 183 112 218 179 45 87 52 130 52 336 0 214 -8 266 -54
346 -55 94 -166 172 -274 192 -83 15 -5812 12 -5876 -3z"/>
<path d="M1338 8555 c-60 -22 -105 -63 -134 -121 l-27 -55 0 -532 c0 -293 4
-548 8 -567 18 -85 85 -156 170 -179 26 -7 226 -11 581 -11 l541 0 23 -62
c145 -406 393 -827 664 -1125 l39 -43 -414 -1 c-228 0 -424 -2 -437 -5 -73
-13 -143 -75 -171 -150 -17 -45 -18 -89 -17 -594 2 -595 0 -576 61 -648 15
-18 46 -43 69 -55 40 -21 51 -22 411 -25 204 -1 398 -3 433 -5 l62 -2 -23 -25
c-57 -62 -190 -235 -259 -335 -66 -97 -96 -144 -171 -270 -43 -72 -179 -360
-223 -472 l-48 -123 -541 -1 c-297 0 -553 -3 -570 -5 -42 -7 -110 -49 -135
-83 -54 -76 -53 -64 -53 -641 1 -363 4 -548 12 -576 24 -88 108 -161 194 -170
18 -1 146 -3 285 -3 l253 -1 -17 -31 c-37 -72 -43 -120 -43 -319 0 -209 7
-260 50 -339 52 -96 167 -180 273 -200 60 -11 5794 -11 5865 0 141 22 287 155
318 289 4 19 8 136 8 260 l0 225 -32 66 c-19 38 -55 89 -85 119 -50 49 -134
100 -168 100 -13 0 -15 68 -14 552 1 512 0 557 -17 602 -36 96 -107 144 -225
153 -64 5 -74 9 -79 27 -4 12 -10 30 -15 41 -5 11 -32 76 -61 145 -95 228
-269 543 -379 690 -15 19 -53 70 -85 113 -32 42 -68 88 -79 100 -12 13 -38 44
-59 70 l-38 47 903 0 c614 0 916 4 943 11 85 23 153 94 170 179 10 45 10 1042
1 1097 -15 87 -99 173 -181 187 -16 2 -437 5 -934 5 l-904 1 24 29 c13 16 61
75 107 132 46 57 89 111 97 120 7 9 36 51 64 93 151 223 288 482 381 717 l54
137 70 4 c83 6 139 30 183 82 58 65 57 62 58 658 0 300 -3 549 -7 553 -3 4
-26 3 -51 0 l-45 -7 -2 -112 c0 -61 -3 -133 -5 -161 -3 -27 -7 -76 -10 -108
-23 -278 -106 -675 -184 -880 l-11 -27 -2642 2 -2642 3 -33 105 c-31 96 -84
302 -97 375 -37 198 -52 304 -62 430 -4 50 -8 99 -9 110 -1 11 -3 74 -4 141
l-1 121 -66 11 c-93 15 -163 53 -231 123 l-58 59 -270 -1 c-199 -1 -280 -5
-307 -14z m5652 -2742 c-235 -244 -468 -417 -755 -557 -82 -41 -185 -87 -227
-103 -70 -25 -97 -43 -67 -43 17 0 200 -75 287 -119 272 -134 552 -340 749
-551 l52 -55 -955 -3 c-525 -1 -1384 -1 -1910 0 l-956 3 64 65 c82 83 158 154
228 210 30 25 57 48 60 51 3 3 55 40 115 81 168 115 303 189 500 273 17 7 54
21 83 31 28 10 52 21 52 24 0 3 -35 19 -77 35 -213 80 -433 202 -630 348 -120
89 -332 278 -382 340 -13 16 90 17 1900 17 l1913 0 -44 -47z m-1715 -1517
c214 -23 462 -124 652 -265 126 -93 273 -235 365 -352 23 -30 45 -56 48 -59
44 -40 270 -427 270 -462 0 -5 -671 -8 -1491 -8 l-1490 0 7 23 c3 12 29 65 57
117 289 547 723 908 1197 995 106 20 259 24 385 11z m-1655 -1149 c0 -2 -18
-47 -39 -100 -22 -54 -37 -98 -33 -98 7 -2 3152 -5 3152 -3 0 3 -54 135 -66
161 -8 17 -14 34 -14 37 0 3 257 5 572 4 l571 -3 24 -70 c29 -84 98 -352 113
-438 6 -34 13 -73 16 -87 20 -115 28 -182 39 -315 4 -44 9 -96 10 -115 2 -19
5 -86 5 -147 2 -97 4 -113 19 -114 24 -1 64 -9 69 -14 11 -10 -11 -55 -44 -93
-23 -27 -54 -48 -90 -62 -55 -20 -60 -20 -3024 -20 -1634 0 -2970 3 -2970 8 0
11 55 70 95 102 44 35 125 67 192 76 26 3 49 7 49 8 1 0 4 75 7 166 3 91 8
188 11 215 7 77 37 298 41 304 1 3 6 28 9 55 4 27 9 52 11 55 1 3 6 22 9 41
12 78 105 411 123 443 4 7 1143 11 1143 4z"/>
<path d="M3355 8288 c4 -118 16 -272 29 -354 3 -21 8 -59 11 -84 4 -25 10 -61
15 -80 5 -19 11 -48 13 -65 14 -89 100 -380 119 -400 6 -7 547 -10 1584 -10
l1574 0 35 105 c36 108 80 276 91 344 3 21 8 48 10 60 2 11 7 36 9 54 3 17 8
49 11 70 13 85 25 236 29 362 l2 90 -1767 0 -1767 0 2 -92z"/>
</g>
</svg>
